<svg id="Layer_1" data-name="Layer 1" xmlns="http://www.w3.org/2000/svg" xmlns:xlink="http://www.w3.org/1999/xlink" viewBox="0 0 117.83 24.67"><defs><style>.cls-1{fill:url(#linear-gradient);}.cls-2{fill:url(#linear-gradient-2);}.cls-3{fill:url(#linear-gradient-3);}.cls-4{fill:url(#linear-gradient-4);}.cls-5{fill:url(#linear-gradient-5);}.cls-6{fill:url(#linear-gradient-6);}.cls-7{fill:url(#linear-gradient-7);}.cls-8{fill:url(#linear-gradient-8);}.cls-9{fill:url(#linear-gradient-9);}.cls-10{fill:url(#linear-gradient-10);}.cls-11{fill:url(#linear-gradient-11);}</style><linearGradient id="linear-gradient" x1="2.88" y1="12.23" x2="30.39" y2="12.23" gradientUnits="userSpaceOnUse"><stop offset="0" stop-color="#57c1ef"/><stop offset="0.22" stop-color="#4ab5e7"/><stop offset="0.64" stop-color="#2797d3"/><stop offset="1" stop-color="#0377be"/></linearGradient><linearGradient id="linear-gradient-2" x1="2.88" y1="7.18" x2="30.39" y2="7.18" xlink:href="#linear-gradient"/><linearGradient id="linear-gradient-3" x1="2.88" y1="12.23" x2="30.39" y2="12.23" xlink:href="#linear-gradient"/><linearGradient id="linear-gradient-4" x1="2.88" y1="17.27" x2="30.39" y2="17.27" xlink:href="#linear-gradient"/><linearGradient id="linear-gradient-5" x1="36.66" y1="2.32" x2="36.66" y2="24.29" gradientUnits="userSpaceOnUse"><stop offset="0" stop-color="#57c1ef"/><stop offset="0.06" stop-color="#4fbaea"/><stop offset="0.32" stop-color="#2e9dd7"/><stop offset="0.57" stop-color="#1688c9"/><stop offset="0.8" stop-color="#087bc1"/><stop offset="1" stop-color="#0377be"/></linearGradient><linearGradient id="linear-gradient-6" x1="47.44" y1="6.9" x2="47.44" y2="19.02" xlink:href="#linear-gradient-5"/><linearGradient id="linear-gradient-7" x1="58.18" y1="4.84" x2="58.18" y2="19.02" xlink:href="#linear-gradient-5"/><linearGradient id="linear-gradient-8" x1="70.14" y1="1.98" x2="70.14" y2="19.02" xlink:href="#linear-gradient-5"/><linearGradient id="linear-gradient-9" x1="83.96" y1="6.9" x2="83.96" y2="19.02" xlink:href="#linear-gradient-5"/><linearGradient id="linear-gradient-10" x1="97.88" y1="6.9" x2="97.88" y2="19.02" xlink:href="#linear-gradient-5"/><linearGradient id="linear-gradient-11" x1="111.59" y1="1.98" x2="111.59" y2="18.91" xlink:href="#linear-gradient-5"/></defs><title>jetbook</title><path class="cls-1" d="M19.8,1.29a10.89,10.89,0,0,0-7.5,3h3.3a9,9,0,1,1,0,15.91H12.3A10.93,10.93,0,1,0,19.8,1.29Z"/><path class="cls-2" d="M26.91,9.31A7.17,7.17,0,0,0,20.35,5H1A4.27,4.27,0,0,0,5.26,9.31Z"/><path class="cls-3" d="M27.21,14.36a7.21,7.21,0,0,0,0-4.26H4.77A4.26,4.26,0,0,0,9,14.36Z"/><path class="cls-4" d="M20.35,19.41a7.18,7.18,0,0,0,6.56-4.27H8.54a4.26,4.26,0,0,0,4.26,4.27Z"/><path class="cls-5" d="M34.63,24.08a.86.86,0,0,1-.44-.31.88.88,0,0,1,.09-1.12.82.82,0,0,1,.62-.26l.34,0,.34,0a1.78,1.78,0,0,0,1.05-.25Q37,22,37,21.11v-13a1,1,0,0,1,.3-.74A1,1,0,0,1,38,7a1,1,0,0,1,1.05,1.05V21.15a3.42,3.42,0,0,1-.72,2.28,2.81,2.81,0,0,1-2.28.86A4.55,4.55,0,0,1,34.63,24.08ZM37.15,4.4a1.12,1.12,0,0,1-.34-.82V3.49A1.17,1.17,0,0,1,38,2.32h.14a1.17,1.17,0,0,1,1.17,1.17v.09a1.17,1.17,0,0,1-1.17,1.17H38A1.12,1.12,0,0,1,37.15,4.4Z"/><path class="cls-6" d="M43.55,17.43A6.1,6.1,0,0,1,42,13a7.45,7.45,0,0,1,.6-3A5.09,5.09,0,0,1,44.4,7.74a5.26,5.26,0,0,1,3-.85,5.32,5.32,0,0,1,2.93.79,5.11,5.11,0,0,1,1.88,2.1,6.48,6.48,0,0,1,.64,2.87,1,1,0,0,1-1.05,1H44.08a3.76,3.76,0,0,0,1.19,2.49,4.1,4.1,0,0,0,2.81.89,6.88,6.88,0,0,0,1.68-.18,7,7,0,0,0,1.41-.53.91.91,0,0,1,.41-.09.92.92,0,0,1,.64.25.83.83,0,0,1,.27.64,1,1,0,0,1-.6.85,8.27,8.27,0,0,1-1.76.76A8.3,8.3,0,0,1,47.9,19,5.84,5.84,0,0,1,43.55,17.43ZM50.83,12a3.67,3.67,0,0,0-.58-1.88A3.15,3.15,0,0,0,49,9a3.49,3.49,0,0,0-3.07,0,3.07,3.07,0,0,0-1.26,1.11A3.73,3.73,0,0,0,44.08,12Z"/><path class="cls-7" d="M56.32,16V8.91H54.7a.43.43,0,0,1-.44-.43.48.48,0,0,1,.21-.39l3.11-3A.58.58,0,0,1,58,4.84a.4.4,0,0,1,.31.14.46.46,0,0,1,.13.32V7.13H61a.86.86,0,0,1,.89.89.88.88,0,0,1-.25.63.85.85,0,0,1-.64.26H58.41v6.91q0,.89.42,1.13a2.13,2.13,0,0,0,1.06.24,3.17,3.17,0,0,0,.92-.14L61,17l.26,0a.81.81,0,0,1,.57.24.78.78,0,0,1,.25.58.87.87,0,0,1-.53.8,4.48,4.48,0,0,1-1.9.41Q56.32,19,56.32,16Z"/><path class="cls-8" d="M66.46,17.29v.59a1,1,0,0,1-.31.73,1,1,0,0,1-.74.3,1,1,0,0,1-1-1V3a1,1,0,0,1,.3-.74A1,1,0,0,1,65.41,2,1,1,0,0,1,66.46,3V8.64A5.26,5.26,0,0,1,70.37,6.9a5.37,5.37,0,0,1,2.69.72,5.47,5.47,0,0,1,2.06,2.1A6.43,6.43,0,0,1,75.91,13a6.43,6.43,0,0,1-.79,3.24,5.46,5.46,0,0,1-2.06,2.1,5.37,5.37,0,0,1-2.69.72A5.26,5.26,0,0,1,66.46,17.29ZM72.8,16a4.22,4.22,0,0,0,1-3,4.22,4.22,0,0,0-1-3,3.6,3.6,0,0,0-2.72-1.08,4.32,4.32,0,0,0-2,.47,5.66,5.66,0,0,0-1.64,1.25v4.8a5.63,5.63,0,0,0,1.64,1.25,4.31,4.31,0,0,0,2,.47A3.59,3.59,0,0,0,72.8,16Z"/><path class="cls-9" d="M80.88,18.27a5.12,5.12,0,0,1-2-2.14A6.76,6.76,0,0,1,78.11,13a6.76,6.76,0,0,1,.72-3.17,5.13,5.13,0,0,1,2-2.14,6.65,6.65,0,0,1,6.16,0,5.19,5.19,0,0,1,2.06,2.14A6.68,6.68,0,0,1,89.82,13a6.67,6.67,0,0,1-.73,3.17A5.19,5.19,0,0,1,87,18.27a6.65,6.65,0,0,1-6.16,0Zm4.88-1.58a3.49,3.49,0,0,0,1.42-1.37,4.58,4.58,0,0,0,.56-2.38,4.53,4.53,0,0,0-.56-2.36,3.42,3.42,0,0,0-1.42-1.36A4,4,0,0,0,84,8.8a4.06,4.06,0,0,0-1.82.42,3.35,3.35,0,0,0-1.41,1.36,4.61,4.61,0,0,0-.55,2.36,4.66,4.66,0,0,0,.55,2.38,3.42,3.42,0,0,0,1.41,1.37,4,4,0,0,0,1.82.44A3.92,3.92,0,0,0,85.76,16.69Z"/><path class="cls-10" d="M94.79,18.27a5.12,5.12,0,0,1-2-2.14A6.76,6.76,0,0,1,92,13a6.76,6.76,0,0,1,.72-3.17,5.13,5.13,0,0,1,2-2.14,6.65,6.65,0,0,1,6.16,0A5.21,5.21,0,0,1,103,9.79a6.68,6.68,0,0,1,.73,3.17,6.67,6.67,0,0,1-.73,3.17,5.2,5.2,0,0,1-2.06,2.14,6.65,6.65,0,0,1-6.16,0Zm4.88-1.58a3.49,3.49,0,0,0,1.42-1.37,4.58,4.58,0,0,0,.56-2.38,4.53,4.53,0,0,0-.56-2.36,3.42,3.42,0,0,0-1.42-1.36,4,4,0,0,0-1.8-.42,4.06,4.06,0,0,0-1.82.42,3.35,3.35,0,0,0-1.41,1.36,4.6,4.6,0,0,0-.55,2.36,4.66,4.66,0,0,0,.55,2.38,3.42,3.42,0,0,0,1.41,1.37,4,4,0,0,0,1.82.44A3.92,3.92,0,0,0,99.67,16.69Z"/><path class="cls-11" d="M106.94,18.61a1,1,0,0,1-.3-.73V3a1,1,0,0,1,.3-.74,1,1,0,0,1,.73-.31A1.05,1.05,0,0,1,108.72,3v9.36l5.45-5a1.05,1.05,0,0,1,.69-.3.93.93,0,0,1,.77.3,1.1,1.1,0,0,1,.24.71,1.12,1.12,0,0,1-.39.78l-3.29,3,4.14,5.49a1,1,0,0,1,.23.62,1,1,0,0,1-.3.73,1.07,1.07,0,0,1-.75.27,1,1,0,0,1-.46-.11,1.12,1.12,0,0,1-.39-.32l-3.94-5.35-2,1.81v3a1,1,0,0,1-.31.73,1,1,0,0,1-.74.3A1,1,0,0,1,106.94,18.61Z"/></svg>